# xmcd
#
# Track frame offsets:
#	150
#	17622
#	35919
#	51990
#	65351
#	92447
#	112587
#	128513
#	149447
#	160239
#	176903
#	197028
#	215059
#
# Disc length: 3384 seconds
#
# Revision: 0
# Processed by: cddbd v1.5.2PL0 Copyright (c) Steve Scherf et al.
# Submitted via: EZCDAudioConverter 1.3.4.1
#
DISCID=b60d360d
DTITLE=MOUNTAIN MOCHA KILIMANJARO - UHURU PEAK
DYEAR=1900
DGENRE=
TTITLE0=乱暴
TTITLE1=Theme Of Kilimanjaro
TTITLE2=Sweet Las Coke
TTITLE3=Super Jock Strut
TTITLE4=Mr. Soul Machine Gun
TTITLE5=Caught In The Middle
TTITLE6=Indication
TTITLE7=A Woman Changed My Life
TTITLE8=Sympathy
TTITLE9=Alligator Man
TTITLE10=The Mantle
TTITLE11=(Ain't Got Nobody) Just A Rambling Man
TTITLE12=Love Spectrum
EXTD=
EXTT0=
EXTT1=
EXTT2=
EXTT3=
EXTT4=
EXTT5=
EXTT6=
EXTT7=
EXTT8=
EXTT9=
EXTT10=
EXTT11=
EXTT12=
PLAYORDER=
